<svg width="23" height="24" viewBox="0 0 23 24" fill="none" xmlns="http://www.w3.org/2000/svg">
<g id="wallet">
<path id="Vector" d="M20.09 1.63278V7.36278H3.86001C3.12943 7.3196 2.44294 6.99895 1.94094 6.4664C1.43894 5.93385 1.15935 5.22964 1.15935 4.49778C1.15935 3.76592 1.43894 3.06171 1.94094 2.52917C2.44294 1.99662 3.12943 1.67596 3.86001 1.63278H20.09Z" stroke="#373737" stroke-width="2" stroke-miterlimit="10" stroke-linecap="square"/>
<path id="Vector_2" d="M18.18 13.1328H22V16.9528H18.18C17.6735 16.9528 17.1876 16.7516 16.8294 16.3934C16.4713 16.0352 16.27 15.5493 16.27 15.0428C16.27 14.5362 16.4713 14.0504 16.8294 13.6922C17.1876 13.334 17.6735 13.1328 18.18 13.1328Z" stroke="#373737" stroke-width="2" stroke-miterlimit="10" stroke-linecap="square"/>
<path id="Vector_3" d="M22 7.36277V22.6328H2.91002C2.40426 22.6301 1.91997 22.4281 1.56235 22.0704C1.20472 21.7128 1.00264 21.2285 1.00002 20.7228V4.49277C0.998701 4.86919 1.07171 5.24217 1.21485 5.59031C1.35798 5.93846 1.56844 6.25492 1.83415 6.52156C2.09985 6.7882 2.41558 6.99976 2.76323 7.14411C3.11087 7.28846 3.48359 7.36277 3.86002 7.36277H22Z" stroke="#373737" stroke-width="2" stroke-miterlimit="10" stroke-linecap="square"/>
</g>
</svg>
