<svg width="28" height="28" viewBox="0 0 28 28" fill="none" xmlns="http://www.w3.org/2000/svg">
<g id="&#240;&#159;&#166;&#134; icon &#34;Airplane&#34;">
<path id="Vector" d="M12.3125 0.5C13.3376 0.5 14.2655 1.10685 14.6764 2.04602L18.671 11.1751L24.1316 10.8355C25.8793 10.7263 27.3846 12.0545 27.4939 13.8022L27.5 14C27.5 15.7511 26.0805 17.1707 24.3294 17.1707L24.1316 17.1645L18.671 16.8232L14.6764 25.954C14.2655 26.8932 13.3376 27.5 12.3125 27.5C11.4898 27.5 10.8228 26.8331 10.8228 26.0103L10.8257 25.9178L12.0121 16.4064L7.86426 16.1465L5.93984 19.9954C5.70859 20.4579 5.23586 20.75 4.71876 20.75C4.25277 20.75 3.87501 20.3723 3.87501 19.9063V15.8968L2.08224 15.7864C1.19287 15.7308 0.5 14.9933 0.5 14.1022V13.8978C0.5 13.0067 1.19287 12.2692 2.08224 12.2136L3.87501 12.1016V8.09376C3.87501 7.62777 4.25277 7.25001 4.71876 7.25001C5.23586 7.25001 5.70859 7.54217 5.93984 8.00468L7.86257 11.8518L12.0121 11.592L10.8343 2.17447C10.7323 1.35809 11.3114 0.613551 12.1277 0.511503C12.189 0.503842 12.2507 0.5 12.3125 0.5Z" fill="#06283D"/>
</g>
</svg>
