<svg width="28" height="29" viewBox="0 0 28 29" fill="none" xmlns="http://www.w3.org/2000/svg">
<g id="barcode_scanner">
<mask id="mask0_50_1206" style="mask-type:alpha" maskUnits="userSpaceOnUse" x="0" y="0" width="28" height="29">
<rect id="Bounding box" y="0.940796" width="28" height="28" fill="#D9D9D9"/>
</mask>
<g mask="url(#mask0_50_1206)">
<path id="barcode_scanner_2" d="M1.16667 25.4408V19.6075H3.50001V23.1075H7V25.4408H1.16667ZM21 25.4408V23.1075H24.5V19.6075H26.8333V25.4408H21ZM4.66667 21.9408V7.9408H7V21.9408H4.66667ZM8.16667 21.9408V7.9408H9.33334V21.9408H8.16667ZM11.6667 21.9408V7.9408H14V21.9408H11.6667ZM15.1667 21.9408V7.9408H18.6667V21.9408H15.1667ZM19.8333 21.9408V7.9408H21V21.9408H19.8333ZM22.1667 21.9408V7.9408H23.3333V21.9408H22.1667ZM1.16667 10.2741V4.4408H7V6.77413H3.50001V10.2741H1.16667ZM24.5 10.2741V6.77413H21V4.4408H26.8333V10.2741H24.5Z" fill="#6359E9"/>
</g>
</g>
</svg>
