<svg width="29" height="29" viewBox="0 0 29 29" fill="none" xmlns="http://www.w3.org/2000/svg">
<g id="Frame" clip-path="url(#clip0_27_170)">
<path id="Vector" d="M24.7561 16.0696V23.9539H25.9228V26.2873H2.58944V23.9539H3.75611L3.75611 16.0696C3.03788 15.5902 2.44911 14.9409 2.04207 14.1793C1.63502 13.4178 1.4223 12.5675 1.42278 11.7039C1.42278 10.7391 1.68411 9.80928 2.16128 9.01712L5.32528 3.53728C5.42767 3.35993 5.57494 3.21266 5.75229 3.11026C5.92964 3.00786 6.13082 2.95395 6.33561 2.95395L22.1778 2.95395C22.3826 2.95395 22.5837 3.00786 22.7611 3.11026C22.9384 3.21266 23.0857 3.35993 23.1881 3.53728L26.3404 8.99962C27.0364 10.1556 27.2601 11.5354 26.9651 12.8521C26.67 14.1688 25.8789 15.3212 24.7561 16.0696ZM22.4228 16.9213C21.6206 17.0113 20.8085 16.9149 20.0497 16.6397C19.2908 16.3645 18.6058 15.9179 18.0478 15.3346C17.558 15.8469 16.9695 16.2546 16.3179 16.5331C15.6662 16.8116 14.9648 16.9552 14.2561 16.9551C13.5476 16.9555 12.8463 16.8123 12.1946 16.5341C11.543 16.256 10.9544 15.8488 10.4644 15.3369C9.90634 15.92 9.22121 16.3664 8.46239 16.6414C7.70356 16.9164 6.89151 17.0126 6.08944 16.9224V23.9539H22.4228V16.9224V16.9213ZM7.00994 5.28728L4.17144 10.2024C3.89562 10.884 3.88734 11.6445 4.14826 12.3318C4.40919 13.0192 4.92007 13.5826 5.57865 13.9094C6.23724 14.2362 6.99494 14.3022 7.70012 14.0942C8.4053 13.8863 9.00592 13.4196 9.38177 12.7878C9.77261 11.8113 11.1551 11.8113 11.5471 12.7878C11.7633 13.3296 12.137 13.7941 12.6199 14.1214C13.1028 14.4487 13.6728 14.6236 14.2561 14.6236C14.8395 14.6236 15.4094 14.4487 15.8923 14.1214C16.3752 13.7941 16.7489 13.3296 16.9651 12.7878C17.3559 11.8113 18.7384 11.8113 19.1304 12.7878C19.2818 13.1605 19.5087 13.4978 19.7968 13.7786C20.0848 14.0594 20.4279 14.2776 20.8043 14.4194C21.1807 14.5612 21.5824 14.6236 21.9842 14.6027C22.3859 14.5818 22.779 14.4781 23.1386 14.2979C23.4983 14.1178 23.8169 13.8652 24.0742 13.5561C24.3316 13.2469 24.5222 12.8878 24.6342 12.5015C24.7461 12.1151 24.7768 11.7097 24.7246 11.3108C24.6723 10.912 24.538 10.5283 24.3303 10.1838L21.5011 5.28728H7.01111H7.00994Z" fill="#06283D"/>
</g>
<defs>
<clipPath id="clip0_27_170">
<rect width="28" height="28" fill="white" transform="translate(0.256104 0.620621)"/>
</clipPath>
</defs>
</svg>
