<svg width="29" height="29" viewBox="0 0 29 29" fill="none" xmlns="http://www.w3.org/2000/svg">
<g id="car-vehicle">
<path id="Vector" d="M7.57111 21.595C8.80178 21.595 9.79944 20.5973 9.79944 19.3666C9.79944 18.136 8.80178 17.1383 7.57111 17.1383C6.34043 17.1383 5.34277 18.136 5.34277 19.3666C5.34277 20.5973 6.34043 21.595 7.57111 21.595Z" stroke="#2844BD" stroke-width="2" stroke-miterlimit="10"/>
<path id="Vector_2" d="M20.9411 21.595C22.1718 21.595 23.1694 20.5973 23.1694 19.3666C23.1694 18.136 22.1718 17.1383 20.9411 17.1383C19.7104 17.1383 18.7128 18.136 18.7128 19.3666C18.7128 20.5973 19.7104 21.595 20.9411 21.595Z" stroke="#2844BD" stroke-width="2" stroke-miterlimit="10"/>
<path id="Vector_3" d="M18.7128 19.3666H9.79944" stroke="#2844BD" stroke-width="2" stroke-miterlimit="10"/>
<path id="Vector_4" d="M5.34274 19.3666H2.00607V16.0533C2.00453 15.7602 2.06111 15.4698 2.17255 15.1987C2.28398 14.9276 2.44806 14.6814 2.65529 14.4742C2.86252 14.2669 3.10878 14.1028 3.37983 13.9914C3.65089 13.88 3.94134 13.8234 4.23441 13.8249H5.40107L6.64941 11.1883C6.9243 10.6418 7.34368 10.181 7.86198 9.85603C8.38029 9.53106 8.97772 9.3543 9.5894 9.34494H18.1061C18.6332 9.33616 19.1549 9.45332 19.6277 9.68667C20.1005 9.92002 20.5107 10.2628 20.8244 10.6866L23.1577 13.8016H24.2661C24.5621 13.7985 24.8557 13.8546 25.1297 13.9668C25.4037 14.079 25.6524 14.2449 25.8612 14.4548C26.0699 14.6647 26.2346 14.9142 26.3453 15.1888C26.4561 15.4633 26.5108 15.7573 26.5061 16.0533V19.3899H23.1694" stroke="#2844BD" stroke-width="2" stroke-miterlimit="10"/>
<path id="Vector_5" d="M5.34277 13.8016H23.1694" stroke="#2844BD" stroke-width="2" stroke-miterlimit="10"/>
<path id="Vector_6" d="M13.1478 9.34497V13.8016" stroke="#2844BD" stroke-width="2" stroke-miterlimit="10"/>
</g>
</svg>
