<svg width="28" height="29" viewBox="0 0 28 29" fill="none" xmlns="http://www.w3.org/2000/svg">
<g id="credit_card">
<mask id="mask0_50_1197" style="mask-type:alpha" maskUnits="userSpaceOnUse" x="0" y="0" width="28" height="29">
<rect id="Bounding box" y="0.980225" width="28" height="28" fill="#D9D9D9"/>
</mask>
<g mask="url(#mask0_50_1197)">
<path id="credit_card_2" d="M25.6667 7.98018V21.9802C25.6667 22.6219 25.4382 23.1712 24.9812 23.6281C24.5243 24.085 23.975 24.3135 23.3333 24.3135H4.66666C4.02499 24.3135 3.47569 24.085 3.01875 23.6281C2.5618 23.1712 2.33333 22.6219 2.33333 21.9802V7.98018C2.33333 7.33852 2.5618 6.78921 3.01875 6.33227C3.47569 5.87532 4.02499 5.64685 4.66666 5.64685H23.3333C23.975 5.64685 24.5243 5.87532 24.9812 6.33227C25.4382 6.78921 25.6667 7.33852 25.6667 7.98018ZM4.66666 10.3135H23.3333V7.98018H4.66666V10.3135ZM4.66666 14.9802V21.9802H23.3333V14.9802H4.66666Z" fill="#6359E9"/>
</g>
</g>
</svg>
