<svg width="28" height="28" viewBox="0 0 28 28" fill="none" xmlns="http://www.w3.org/2000/svg">
<g id="dollar-bill" clip-path="url(#clip0_50_680)">
<g id="money 2">
<path id="Vector" d="M28 6.20667H1.75V21H28V6.20667Z" stroke="#6359E9" stroke-width="1.8" stroke-miterlimit="10" stroke-linecap="square"/>
<path id="Vector_2" d="M5.32501 13.6033H7.71251" stroke="#6359E9" stroke-width="1.8" stroke-miterlimit="10"/>
<path id="Vector_3" d="M22.0375 13.6033H24.425" stroke="#6359E9" stroke-width="1.8" stroke-miterlimit="10"/>
<path id="Vector_4" d="M12.4875 16.7702H15.475C15.9491 16.7702 16.4037 16.6034 16.739 16.3064C17.0742 16.0095 17.2625 15.6067 17.2625 15.1868C17.2625 14.7668 17.0742 14.3641 16.739 14.0671C16.4037 13.7702 15.9491 13.6034 15.475 13.6034H14.225C13.9903 13.6034 13.7578 13.5624 13.541 13.4828C13.3241 13.4033 13.127 13.2866 12.961 13.1396C12.7951 12.9926 12.6634 12.818 12.5736 12.6259C12.4837 12.4338 12.4375 12.2279 12.4375 12.0199C12.4375 11.6 12.6258 11.1972 12.961 10.9003C13.2963 10.6033 13.7509 10.4365 14.225 10.4365H17.2125" stroke="#6359E9" stroke-width="1.8" stroke-miterlimit="10" stroke-linecap="square"/>
<path id="Vector_5" d="M14.875 9.37354V10.4365" stroke="#6359E9" stroke-width="1.8" stroke-miterlimit="10" stroke-linecap="square"/>
<path id="Vector_6" d="M14.875 16.7701V17.8331" stroke="#6359E9" stroke-width="1.8" stroke-miterlimit="10" stroke-linecap="square"/>
</g>
</g>
<defs>
<clipPath id="clip0_50_680">
<rect width="28" height="28" fill="white"/>
</clipPath>
</defs>
</svg>
