<svg width="29" height="29" viewBox="0 0 29 29" fill="none" xmlns="http://www.w3.org/2000/svg">
<g id="Frame" clip-path="url(#clip0_27_180)">
<path id="Vector" d="M1.0611 8.60643C4.79337 5.5828 9.45275 3.93616 14.2561 3.94326C19.2553 3.94326 23.8461 5.68976 27.4511 8.60643L25.9858 10.4218C22.668 7.73385 18.526 6.27011 14.2561 6.2766C9.81226 6.2766 5.73243 7.82826 2.52643 10.4218L1.0611 8.60643ZM4.7256 13.1448C7.4213 10.9608 10.7867 9.77139 14.2561 9.7766C17.8658 9.7766 21.1814 11.0378 23.7866 13.1436L22.3201 14.9589C20.0391 13.1113 17.1915 12.1053 14.2561 12.1099C11.2018 12.1099 8.39593 13.1774 6.1921 14.9589L4.7256 13.1436V13.1448ZM8.39126 17.6831C10.0501 16.339 12.1211 15.6069 14.2561 15.6099C16.4774 15.6099 18.5179 16.3858 20.1209 17.6819L18.6544 19.4973C17.4103 18.4895 15.8572 17.9408 14.2561 17.9433C12.5901 17.9433 11.0594 18.5254 9.85776 19.4973L8.39126 17.6819V17.6831ZM12.0569 22.2214C12.6788 21.7171 13.4554 21.4423 14.2561 21.4433C15.0891 21.4433 15.8544 21.7349 16.4553 22.2203L14.2561 24.9433L12.0569 22.2203V22.2214Z" fill="#06283D"/>
</g>
<defs>
<clipPath id="clip0_27_180">
<rect width="28" height="28" fill="white" transform="translate(0.256104 0.44326)"/>
</clipPath>
</defs>
</svg>
