<svg width="25" height="28" viewBox="0 0 25 28" fill="none" xmlns="http://www.w3.org/2000/svg">
<g id="Frame">
<path id="Vector" d="M12.5001 3.86243C11.6407 3.86243 10.9376 4.61694 10.9376 5.53913C10.9376 6.46132 11.6407 7.21584 12.5001 7.21584C13.3595 7.21584 14.0626 6.46132 14.0626 5.53913C14.0626 4.61694 13.3595 3.86243 12.5001 3.86243ZM12.5001 20.6295C11.6407 20.6295 10.9376 21.384 10.9376 22.3062C10.9376 23.2284 11.6407 23.9829 12.5001 23.9829C13.3595 23.9829 14.0626 23.2284 14.0626 22.3062C14.0626 21.384 13.3595 20.6295 12.5001 20.6295ZM12.5001 12.2459C11.6407 12.2459 10.9376 13.0005 10.9376 13.9227C10.9376 14.8448 11.6407 15.5994 12.5001 15.5994C13.3595 15.5994 14.0626 14.8448 14.0626 13.9227C14.0626 13.0005 13.3595 12.2459 12.5001 12.2459Z" fill="#13201E"/>
</g>
</svg>
